# xmcd
#
# Track frame offsets:
#	150
#	13566
#	24484
#	39674
#	50171
#	70877
#	80043
#	99865
#	122305
#	134258
#	145518
#	155634
#	173064
#
# Disc length: 2442 seconds
# Revision: 1
# Processed by: cddbd v1.5.2PL0 Copyright (c) Steve Scherf et al.
# Submitted via: dBpowerAMP V12.0
#
DISCID=a409880d
DTITLE=PiersFaccini,London,England,UK&VincentSegal,Reims,France - Songs Of Time Lost
DYEAR=2014
DGENRE=Jazz
TTITLE0=Jesce Sole
TTITLE1=The Closing Of Our Eyes
TTITLE2=Cammina Cammina
TTITLE3=Cradle To The Grave
TTITLE4=Quicksilver Daydreams Of Maria
TTITLE5=Villanella Di Cenerentola
TTITLE6=A Half Of Me
TTITLE7=Mangé Pou Le Coeur
TTITLE8=Cicerenella
TTITLE9=Wenn Ich Mir Was Wunschen Durfte
TTITLE10=Everyday Away from You
TTITLE11=Dicitencello Vuje
TTITLE12=Make Me A Pallet On Your Floor
EXTD=
EXTT0=
EXTT1=
EXTT2=
EXTT3=
EXTT4=
EXTT5=
EXTT6=
EXTT7=
EXTT8=
EXTT9=
EXTT10=
EXTT11=
EXTT12=
PLAYORDER=
